<svg width="198" height="82" viewBox="0 0 198 82" fill="none" xmlns="http://www.w3.org/2000/svg">
<path d="M23.5649 7.443H22.7358C22.5945 7.443 22.4799 7.5571 22.4799 7.69784V12.1098C22.4799 12.2506 22.5945 12.3647 22.7358 12.3647H23.5649C23.7062 12.3647 23.8208 12.2506 23.8208 12.1098V7.69784C23.8208 7.5571 23.7062 7.443 23.5649 7.443Z" fill="white"/>
<path d="M25.7216 7.443H24.8926C24.7513 7.443 24.6366 7.5571 24.6366 7.69784V12.1098C24.6366 12.2506 24.7513 12.3647 24.8926 12.3647H25.7216C25.863 12.3647 25.9776 12.2506 25.9776 12.1098V7.69784C25.9776 7.5571 25.863 7.443 25.7216 7.443Z" fill="white"/>
<path d="M21.3957 7.443H20.5667C20.4253 7.443 20.3107 7.5571 20.3107 7.69784V12.1098C20.3107 12.2506 20.4253 12.3647 20.5667 12.3647H21.3957C21.5371 12.3647 21.6517 12.2506 21.6517 12.1098V7.69784C21.6517 7.5571 21.5371 7.443 21.3957 7.443Z" fill="white"/>
<path d="M27.4034 6.4746H18.8778C18.7994 6.4746 18.7358 6.53791 18.7358 6.616V6.94153C18.7358 7.01962 18.7994 7.08293 18.8778 7.08293H27.4034C27.4818 7.08293 27.5454 7.01962 27.5454 6.94153V6.616C27.5454 6.53791 27.4818 6.4746 27.4034 6.4746Z" fill="white"/>
<path d="M31.2725 14.9278C31.5508 15.1325 31.8695 15.3767 32.2213 15.6677C32.9686 16.2925 33.676 16.9632 34.3392 17.676C36.0721 19.5478 37.505 21.6742 38.5876 23.9804C39.1155 25.0475 39.5685 26.1498 39.9434 27.2793C40.3479 28.4106 40.6738 29.5684 40.9186 30.7443C41.3314 32.7912 41.5379 35.0864 41.5379 35.0864H44.6937L44.688 35.0355L44.811 35.0815V35.0593C44.6436 30.5349 43.1652 26.1553 40.5539 22.4487C37.9426 18.742 34.3101 15.8666 30.0942 14.1691L30.062 14.1559C30.3015 14.2852 30.5341 14.4268 30.7589 14.5801C30.915 14.6812 31.09 14.8021 31.2725 14.9278Z" fill="white"/>
<path d="M39.4074 35.0214C39.3868 34.7863 39.3521 34.557 39.3248 34.3235C39.1075 31.6722 38.4995 29.0672 37.5207 26.592C37.2095 25.8198 36.8509 25.0673 36.4472 24.3388C36.3332 24.1357 36.2135 23.9434 36.0963 23.7477C34.1234 19.8598 30.9057 16.7371 26.9514 14.8728L26.9365 14.8637L26.963 14.8982C27.7221 15.6598 28.3985 16.4988 28.981 17.4014C31.511 21.3723 33.0516 25.8874 33.4746 30.5708C33.6089 31.7253 33.6754 32.8867 33.6736 34.049C33.6844 34.3581 33.6959 34.862 33.7 35.0354L33.6876 35.0987H34.3441L39.3884 35.0839V35.0798H39.4157L39.4074 35.0214Z" fill="white"/>
<path d="M26.4489 6.02745C26.4592 5.15266 26.126 4.30841 25.5204 3.67456C24.9147 3.04071 24.0844 2.66735 23.2063 2.63399V2.07908H24.1022V1.65408C24.102 1.64615 24.0987 1.63863 24.093 1.6331C24.0872 1.62758 24.0796 1.6245 24.0716 1.6245H23.9387C23.9308 1.6245 23.9231 1.62758 23.9174 1.6331C23.9117 1.63863 23.9084 1.64615 23.9081 1.65408V1.97798H23.2038V0.708713H23.2228C23.2329 0.708713 23.2426 0.704716 23.2497 0.697624C23.2568 0.690532 23.2608 0.680935 23.2608 0.670906V0.319884C23.2608 0.309778 23.2569 0.300063 23.2498 0.29284C23.2426 0.285618 23.233 0.281465 23.2228 0.28125H23.0701C23.065 0.281249 23.06 0.282234 23.0553 0.284185C23.0507 0.286137 23.0465 0.289016 23.0429 0.292615C23.0394 0.296214 23.0366 0.300475 23.0348 0.305158C23.0329 0.309841 23.032 0.31485 23.0321 0.319884V0.670906C23.032 0.675903 23.0329 0.680868 23.0348 0.685507C23.0366 0.690145 23.0394 0.694341 23.043 0.697875C23.0465 0.701409 23.0508 0.704193 23.0554 0.706053C23.0601 0.707914 23.0651 0.708825 23.0701 0.708713H23.0924V1.97798H22.3789V1.65408C22.3787 1.64615 22.3754 1.63863 22.3697 1.6331C22.364 1.62758 22.3563 1.6245 22.3484 1.6245H22.2154C22.2115 1.62439 22.2075 1.62507 22.2038 1.62651C22.2001 1.62794 22.1967 1.63009 22.1939 1.63285C22.191 1.63561 22.1888 1.63892 22.1872 1.64256C22.1857 1.64621 22.1849 1.65012 22.1849 1.65408V2.07991H23.0932V2.63562C22.213 2.66902 21.3808 3.04397 20.7747 3.68028C20.1686 4.31659 19.8366 5.16375 19.8498 6.04059V6.05622H26.4472L26.4489 6.02745Z" fill="white"/>
<path d="M27.4034 12.8834H18.8778C18.7994 12.8834 18.7358 12.9467 18.7358 13.0248V13.3503C18.7358 13.4284 18.7994 13.4917 18.8778 13.4917H27.4034C27.4818 13.4917 27.5454 13.4284 27.5454 13.3503V13.0248C27.5454 12.9467 27.4818 12.8834 27.4034 12.8834Z" fill="white"/>
<path d="M24.3559 15.3397L24.2651 15.2625V35.0824L31.5677 35.1078C31.5677 35.1078 31.5677 34.9023 31.5677 34.7995C31.5677 26.3454 28.643 19.0127 24.3559 15.3397Z" fill="white"/>
<path d="M41.3806 38.1198H39.4509C39.3095 38.1198 39.1949 38.2339 39.1949 38.3747V40.2942C39.1949 40.4349 39.3095 40.549 39.4509 40.549H41.3806C41.522 40.549 41.6366 40.4349 41.6366 40.2942V38.3747C41.6366 38.2339 41.522 38.1198 41.3806 38.1198Z" fill="white"/>
<path d="M14.6633 38.1174H12.7327C12.5914 38.1174 12.4768 38.2315 12.4768 38.3723V40.2942C12.4768 40.435 12.5914 40.5491 12.7327 40.5491H14.6633C14.8046 40.5491 14.9192 40.435 14.9192 40.2942V38.3723C14.9192 38.2315 14.8046 38.1174 14.6633 38.1174Z" fill="white"/>
<path d="M33.5798 38.1198H31.6501C31.5087 38.1198 31.3941 38.2339 31.3941 38.3747V40.2942C31.3941 40.4349 31.5087 40.549 31.6501 40.549H33.5798C33.7212 40.549 33.8358 40.4349 33.8358 40.2942V38.3747C33.8358 38.2339 33.7212 38.1198 33.5798 38.1198Z" fill="white"/>
<path d="M24.1211 38.1174H22.1906C22.0492 38.1174 21.9346 38.2315 21.9346 38.3723V40.2942C21.9346 40.435 22.0492 40.5491 22.1906 40.5491H24.1211C24.2625 40.5491 24.3771 40.435 24.3771 40.2942V38.3723C24.3771 38.2315 24.2625 38.1174 24.1211 38.1174Z" fill="white"/>
<path d="M45.9328 36.7034H41.6398V35.98C41.6398 35.9236 41.6173 35.8694 41.5772 35.8295C41.5371 35.7895 41.4827 35.7671 41.426 35.7671H39.4129C39.3562 35.7671 39.3018 35.7895 39.2617 35.8295C39.2216 35.8694 39.199 35.9236 39.199 35.98V36.7034H33.8401V35.98C33.8401 35.952 33.8346 35.9242 33.8238 35.8983C33.813 35.8725 33.7971 35.8489 33.7772 35.8292C33.7572 35.8094 33.7336 35.7937 33.7075 35.7831C33.6815 35.7724 33.6536 35.767 33.6254 35.7671H31.6123C31.5556 35.7671 31.5012 35.7895 31.4611 35.8295C31.421 35.8694 31.3985 35.9236 31.3985 35.98V36.7034H24.3799V35.9759C24.3799 35.9194 24.3573 35.8653 24.3172 35.8253C24.2771 35.7854 24.2227 35.763 24.166 35.763H22.1521C22.0954 35.763 22.0409 35.7854 22.0008 35.8253C21.9607 35.8653 21.9382 35.9194 21.9382 35.9759V36.7034H14.9196V35.9759C14.9196 35.9194 14.897 35.8653 14.8569 35.8253C14.8168 35.7854 14.7625 35.763 14.7057 35.763H12.6918C12.6351 35.763 12.5807 35.7854 12.5406 35.8253C12.5005 35.8653 12.4779 35.9194 12.4779 35.9759V36.7034H7.11737V35.9759C7.11737 35.9479 7.11179 35.9201 7.10099 35.8942C7.09019 35.8683 7.07437 35.8449 7.05443 35.8251C7.03448 35.8053 7.01082 35.7896 6.98478 35.779C6.95873 35.7683 6.93083 35.7629 6.90268 35.763H4.88958C4.83279 35.763 4.77827 35.7854 4.73804 35.8253C4.6978 35.8652 4.67511 35.9194 4.67489 35.9759V36.7034H0.396004C0.377353 36.7034 0.358906 36.7071 0.341675 36.7142C0.324443 36.7213 0.308749 36.7317 0.29556 36.7448C0.282372 36.758 0.271905 36.7735 0.264767 36.7907C0.25763 36.8079 0.253982 36.8263 0.253982 36.8448V37.2263C0.253982 37.2638 0.268926 37.2997 0.29556 37.3263C0.322195 37.3528 0.358336 37.3677 0.396004 37.3677H45.9377C45.9755 37.3677 46.0117 37.3528 46.0385 37.3263C46.0652 37.2998 46.0804 37.2638 46.0806 37.2263V36.8448C46.0805 36.8258 46.0765 36.807 46.069 36.7895C46.0615 36.772 46.0505 36.7562 46.0367 36.743C46.0229 36.7298 46.0066 36.7195 45.9888 36.7127C45.9709 36.7059 45.9519 36.7028 45.9328 36.7034Z" fill="white"/>
<path d="M6.86087 38.1174H4.93034C4.78897 38.1174 4.67436 38.2315 4.67436 38.3723V40.2942C4.67436 40.435 4.78897 40.5491 4.93034 40.5491H6.86087C7.00224 40.5491 7.11684 40.435 7.11684 40.2942V38.3723C7.11684 38.2315 7.00224 38.1174 6.86087 38.1174Z" fill="white"/>
<path d="M22.0612 35.0938V15.2682L21.9704 15.3446C17.6833 19.0184 14.7594 26.3602 14.7594 34.8102C14.7594 34.9138 14.7594 35.1185 14.7594 35.1185L22.0612 35.0938Z" fill="white"/>
<path d="M1.63211 35.0946H2.81702L3.92925 35.0988V35.0946H4.78717C4.78717 35.0946 4.99526 32.7986 5.40646 30.7501C5.9193 28.4132 6.70122 26.143 7.73666 23.9845C8.8192 21.6779 10.2524 19.5512 11.9858 17.6793C12.6485 16.9661 13.3556 16.2951 14.1029 15.6702C14.4539 15.3817 14.7726 15.1383 15.0509 14.9303C15.2342 14.8037 15.4109 14.6837 15.5661 14.5768C15.7909 14.4235 16.0235 14.2819 16.263 14.1527L16.2308 14.1658C12.0148 15.8654 8.38268 18.7428 5.7723 22.4512C3.16192 26.1596 1.68477 30.5406 1.51897 35.0659V35.0897H1.63625L1.63211 35.0946Z" fill="white"/>
<path d="M17.3442 17.4105C17.9262 16.5074 18.6023 15.6681 19.3614 14.9065L19.3878 14.8711L19.3738 14.8802C15.4186 16.7453 12.2003 19.8692 10.2273 23.7584C10.1101 23.9541 9.99034 24.1464 9.87639 24.3495C9.47439 25.0783 9.11726 25.8308 8.80704 26.6027C7.82588 29.0789 7.21631 31.6854 6.99791 34.3383C6.97149 34.5718 6.93683 34.802 6.91536 35.0371L6.91122 35.0914H6.93763L11.8243 35.1062H12.6376L12.6252 35.042C12.6293 34.8719 12.6409 34.3671 12.6516 34.0556C12.6505 32.8931 12.7169 31.7315 12.8506 30.5766C13.2742 25.8943 14.8148 21.3804 17.3442 17.4105Z" fill="white"/>
<path d="M45.8188 41.1212H0.504996C0.363626 41.1212 0.249023 41.2353 0.249023 41.376V42.4422C0.249023 42.583 0.363626 42.6971 0.504996 42.6971H45.8188C45.9602 42.6971 46.0748 42.583 46.0748 42.4422V41.376C46.0748 41.2353 45.9602 41.1212 45.8188 41.1212Z" fill="white"/>
<path d="M0.253024 51.9306V51.9133C0.240204 51.4962 0.311645 51.0807 0.463083 50.6916C0.614521 50.3024 0.842871 49.9475 1.13464 49.6478C1.4264 49.3481 1.77561 49.1098 2.16159 48.947C2.54758 48.7842 2.96248 48.7001 3.38168 48.6999C4.23419 48.6659 5.06654 48.9634 5.70275 49.5293L5.24781 50.0612C4.73395 49.5839 4.05106 49.3288 3.34867 49.3518C3.02369 49.3602 2.70366 49.4334 2.40749 49.5668C2.11131 49.7002 1.84495 49.8913 1.62405 50.1288C1.40315 50.3662 1.23218 50.6452 1.12123 50.9495C1.01028 51.2537 0.961589 51.5769 0.977999 51.9002V51.9182C0.952339 52.2533 0.997651 52.5901 1.11095 52.9067C1.22425 53.2233 1.40303 53.5127 1.63574 53.7561C1.86845 53.9996 2.14987 54.1917 2.46186 54.32C2.77385 54.4484 3.10944 54.5101 3.44689 54.5012C4.09997 54.4987 4.73364 54.2797 5.24781 53.8789V52.335H3.34867V51.7045H5.92491V54.1806C5.23495 54.7916 4.34393 55.1297 3.42048 55.1309C2.99635 55.1462 2.57365 55.0736 2.17923 54.9176C1.78481 54.7616 1.42728 54.5256 1.12939 54.2246C0.831511 53.9236 0.599796 53.5643 0.448921 53.1693C0.298046 52.7744 0.231328 52.3526 0.253024 51.9306Z" fill="white"/>
<path d="M8.09083 51.9309V51.9136C8.08964 51.4975 8.17074 51.0853 8.32957 50.7005C8.48839 50.3156 8.72183 49.9657 9.01649 49.6707C9.31115 49.3757 9.66129 49.1413 10.0469 48.9809C10.4326 48.8206 10.8461 48.7375 11.264 48.7363C11.6819 48.7352 12.096 48.8159 12.4826 48.974C12.8691 49.1321 13.2206 49.3645 13.517 49.6579C13.8133 49.9513 14.0487 50.2998 14.2097 50.6838C14.3708 51.0677 14.4542 51.4795 14.4554 51.8955C14.4645 51.9038 14.4645 51.9037 14.4554 51.9136C14.4577 52.7539 14.1247 53.5606 13.5295 54.1564C12.9343 54.7522 12.1258 55.0882 11.2818 55.0905C10.4378 55.0927 9.62747 54.7611 9.02904 54.1686C8.43061 53.5761 8.09313 52.7711 8.09083 51.9309ZM13.7247 51.9309V51.9136C13.738 51.5829 13.6843 51.2529 13.5668 50.9433C13.4493 50.6337 13.2705 50.3509 13.0409 50.1115C12.8113 49.8722 12.5356 49.6813 12.2304 49.5503C11.9251 49.4192 11.5965 49.3507 11.264 49.3488C10.9336 49.3497 10.6066 49.4171 10.303 49.547C9.99935 49.6768 9.72524 49.8665 9.49709 50.1046C9.26894 50.3426 9.0915 50.6241 8.97542 50.9321C8.85933 51.2402 8.80697 51.5684 8.82155 51.8971V51.9153C8.80836 52.2459 8.86217 52.5757 8.9797 52.8852C9.09723 53.1947 9.27611 53.4775 9.5057 53.7168C9.7353 53.956 10.0109 54.1468 10.3161 54.2778C10.6213 54.4088 10.9499 54.4773 11.2822 54.4792C11.6127 54.4783 11.9396 54.4109 12.2433 54.281C12.5469 54.1512 12.821 53.9615 13.0492 53.7235C13.2773 53.4855 13.4548 53.2039 13.5709 52.8959C13.6869 52.5878 13.7393 52.2596 13.7247 51.9309Z" fill="white"/>
<path d="M16.7956 48.8066H19.4519C20.0466 48.7723 20.6314 48.9695 21.0827 49.3565C21.2128 49.4873 21.3154 49.6427 21.3843 49.8135C21.4532 49.9843 21.4871 50.1671 21.484 50.3512V50.3684C21.4899 50.681 21.3976 50.9876 21.2199 51.2454C21.0423 51.5032 20.7882 51.6992 20.4932 51.8062C21.2363 52.0282 21.83 52.454 21.83 53.3057V53.3238C21.83 54.3925 20.93 55.0189 19.5659 55.0189H16.7939L16.7956 48.8066ZM19.3355 51.5752C20.1827 51.5752 20.7715 51.1938 20.7715 50.4655V50.449C20.7715 49.8358 20.281 49.4363 19.3892 49.4363H17.49V51.5736L19.3355 51.5752ZM19.5832 54.3892C20.5278 54.3892 21.1166 53.9707 21.1166 53.2794V53.2613C21.1166 52.5872 20.546 52.1926 19.4577 52.1926H17.4884V54.3851L19.5832 54.3892Z" fill="white"/>
<path d="M24.1416 48.8066H24.8459V55.019H24.1416V48.8066Z" fill="white"/>
<path d="M27.523 48.8066H32.033V49.4462H28.2273V51.5663H31.6301V52.205H28.2248V54.3794H32.0752V55.019H27.5205L27.523 48.8066Z" fill="white"/>
<path d="M34.3467 48.8072H37.0303C37.6807 48.7725 38.3184 48.9957 38.8039 49.4279C38.9612 49.5906 39.0847 49.7826 39.1673 49.993C39.2499 50.2033 39.29 50.4278 39.2853 50.6536V50.6708C39.284 51.1293 39.1088 51.5704 38.7948 51.9058C38.4808 52.2411 38.0511 52.446 37.5918 52.4794L39.5082 55.0179H38.6437L36.8338 52.6035H35.051V55.0179H34.3467V48.8072ZM36.9675 51.9755C37.9039 51.9755 38.5719 51.4962 38.5719 50.6972V50.6807C38.5719 49.9178 37.984 49.4558 36.9766 49.4558H35.051V51.9763L36.9675 51.9755Z" fill="white"/>
<path d="M41.6416 48.8066H42.3022L46.2334 53.785V48.8066H46.9196V55.019H46.3581L42.3286 49.9222V55.019H41.6424L41.6416 48.8066Z" fill="white"/>
<path d="M49.2568 51.9309V51.9136C49.2557 51.4975 49.3368 51.0853 49.4956 50.7005C49.6544 50.3156 49.8878 49.9657 50.1825 49.6707C50.4772 49.3757 50.8273 49.1413 51.2129 48.9809C51.5986 48.8206 52.0121 48.7375 52.4301 48.7363C52.848 48.7352 53.262 48.8159 53.6486 48.974C54.0351 49.1321 54.3866 49.3645 54.683 49.6579C54.9793 49.9513 55.2147 50.2998 55.3758 50.6838C55.5368 51.0677 55.6203 51.4795 55.6215 51.8955C55.6306 51.9038 55.6306 51.9037 55.6215 51.9136C55.6226 52.3297 55.5414 52.7418 55.3826 53.1267C55.2237 53.5115 54.9902 53.8614 54.6955 54.1564C54.4008 54.4514 54.0507 54.6857 53.665 54.846C53.2793 55.0063 52.8657 55.0893 52.4478 55.0905C52.0299 55.0916 51.6159 55.0107 51.2293 54.8526C50.8428 54.6944 50.4914 54.462 50.1951 54.1686C49.8987 53.8752 49.6634 53.5266 49.5024 53.1426C49.3414 52.7587 49.258 52.3469 49.2568 51.9309ZM54.8907 51.9309V51.9136C54.904 51.583 54.8504 51.2531 54.7329 50.9435C54.6155 50.634 54.4367 50.3511 54.2072 50.1118C53.9777 49.8725 53.7021 49.6816 53.3969 49.5505C53.0918 49.4194 52.7633 49.3508 52.4309 49.3488C52.1004 49.3497 51.7735 49.4171 51.4699 49.547C51.1662 49.6768 50.8921 49.8665 50.6639 50.1046C50.4358 50.3426 50.2583 50.6241 50.1422 50.9321C50.0262 51.2402 49.9738 51.5684 49.9884 51.8971V51.9153C49.9752 52.2458 50.029 52.5756 50.1465 52.8851C50.264 53.1945 50.4428 53.4772 50.6723 53.7165C50.9018 53.9557 51.1773 54.1465 51.4824 54.2776C51.7875 54.4086 52.116 54.4772 52.4482 54.4792C52.7787 54.4783 53.1056 54.4109 53.4093 54.281C53.7129 54.1512 53.987 53.9615 54.2152 53.7235C54.4433 53.4855 54.6208 53.2039 54.7369 52.8959C54.853 52.5878 54.9053 52.2596 54.8907 51.9309Z" fill="white"/>
<path d="M61.4854 48.8066H63.6513C64.076 48.7786 64.502 48.8376 64.9028 48.9801C65.3037 49.1226 65.671 49.3456 65.9818 49.6351C66.2927 49.9246 66.5405 50.2746 66.7101 50.6633C66.8796 51.052 66.9671 51.4713 66.9673 51.8951V51.9131C66.9676 52.3378 66.8804 52.7581 66.7113 53.1479C66.5422 53.5378 66.2947 53.889 65.984 54.18C65.6733 54.471 65.306 54.6956 64.9048 54.8398C64.5036 54.9841 64.077 55.0451 63.6513 55.0189H61.4854V48.8066ZM63.6513 54.3711C63.9855 54.3945 64.3209 54.3485 64.6362 54.2359C64.9516 54.1233 65.2399 53.9466 65.483 53.7171C65.7261 53.4875 65.9185 53.2101 66.0481 52.9025C66.1777 52.5949 66.2416 52.2639 66.2357 51.9304V51.9131C66.2421 51.5787 66.1788 51.2466 66.0496 50.9377C65.9205 50.6289 65.7284 50.3502 65.4855 50.1191C65.2426 49.888 64.9541 49.7096 64.6384 49.5952C64.3227 49.4808 63.9865 49.4328 63.6513 49.4543H62.1889V54.3711H63.6513Z" fill="white"/>
<path d="M69.3076 48.8066H73.8185V49.4462H70.0119V51.5663H73.4172V52.205H70.0119V54.3794H73.8631V55.019H69.3076V48.8066Z" fill="white"/>
<path d="M79.6533 48.8066H80.3576V54.3712H83.8703V55.019H79.6533V48.8066Z" fill="white"/>
<path d="M88.3288 48.7627H88.9894L91.8332 55.0194H91.0751L90.3452 53.3753H86.9482L86.205 55.0194H85.4834L88.3288 48.7627ZM90.0629 52.7472L88.6459 49.5798L87.2199 52.7472H90.0629Z" fill="white"/>
<path d="M9.46363 73.0933C9.00308 73.2665 8.49883 73.2881 8.02502 73.155C7.55121 73.0218 7.13281 72.7409 6.83125 72.3534L4.9007 69.8864C4.65586 69.5882 4.33856 69.3572 3.97888 69.2154C3.61919 69.0735 3.22903 69.0255 2.84548 69.0759V71.4993C2.84548 72.3732 3.44661 72.5228 4.24921 72.6231C4.33674 72.6354 4.274 73.0472 4.17326 73.0472H0.37492C0.274183 73.0472 0.199059 72.6362 0.298971 72.6231C0.938903 72.5351 1.33939 72.2852 1.33939 71.4993V65.9348C1.33939 65.1127 0.90092 64.8735 0.298971 64.7115C0.199059 64.6869 0.261797 64.275 0.37492 64.2874C0.853256 64.3412 1.33443 64.3662 1.8158 64.3622C2.74308 64.3622 3.60763 64.2874 4.2104 64.2874C6.10295 64.2874 7.36879 65.0609 7.36879 66.5957C7.3664 67.1836 7.13075 67.7468 6.71316 68.1625C6.29558 68.5783 5.72989 68.8129 5.13934 68.8153V68.8786C5.64055 68.8786 6.00469 69.0907 6.55628 69.7771L8.42322 72.1101C8.53705 72.2865 8.69006 72.4345 8.87045 72.5426C9.05084 72.6508 9.2538 72.7163 9.46363 72.7341C9.56354 72.7324 9.53877 73.0686 9.46363 73.0933ZM5.79164 66.9278C5.81639 66.6627 5.78276 66.3954 5.69311 66.1445C5.60346 65.8936 5.45994 65.6652 5.27254 65.4751C5.08514 65.2851 4.85837 65.1381 4.60804 65.0442C4.35772 64.9504 4.08988 64.9121 3.82315 64.9319C3.08 64.9319 2.84633 65.2311 2.84633 65.9298V68.4996H3.20965C5.0766 68.5013 5.79164 68.1773 5.79164 66.9295V66.9278Z" fill="white"/>
<path d="M11.4853 72.6197C12.2128 72.4323 12.7768 72.3197 12.7768 71.3957V65.8566C12.7768 65.0576 12.2632 64.8455 11.724 64.7058C11.6232 64.6811 11.686 64.2692 11.7867 64.2815C12.7016 64.381 14.2804 64.3564 15.045 64.3564C16.1853 64.3564 17.0127 64.3062 18.0408 64.2815C18.3413 64.2815 18.3413 64.4813 18.2785 64.7682L17.978 65.9537C17.94 66.1288 17.6271 66.1288 17.5767 65.9537C17.3884 65.3429 17.0127 64.9927 15.4463 64.9927C14.5686 64.9927 14.2804 65.2171 14.2804 65.8665V67.9003C14.2804 68.2291 14.4456 68.2866 14.6933 68.2866H14.9691C15.8121 68.383 16.6627 68.1848 17.3752 67.726C17.5007 67.6125 17.7765 67.638 17.6634 67.8904L16.9491 69.463C16.8492 69.6874 16.661 69.6628 16.5231 69.4754C16.3072 69.2652 16.0469 69.1057 15.7612 69.0085C15.4754 68.9114 15.1715 68.8791 14.8716 68.9139H14.6957C14.448 68.9139 14.2829 68.9764 14.2829 69.3003V71.3965C14.2829 72.1084 14.5835 72.3706 15.6239 72.3706C17.5164 72.3706 18.2661 71.5091 18.5692 71.0356C18.6567 70.8975 18.9952 70.9608 18.9952 71.1721C18.9952 71.8083 18.4561 73.0694 17.6667 73.0694C16.9648 73.0316 16.2762 72.9938 15.2234 72.9938C14.0674 72.9938 12.7041 72.9568 11.5638 73.0694C11.4358 73.0809 11.3854 72.6444 11.4853 72.6197Z" fill="white"/>
<path d="M23.9975 69.6989V71.4993C23.9975 72.3731 24.5986 72.5227 25.4012 72.623C25.4887 72.6354 25.426 73.0472 25.326 73.0472H21.5277C21.4278 73.0472 21.3527 72.6362 21.4526 72.623C22.0925 72.5351 22.493 72.2852 22.493 71.4993V65.9347C22.493 65.1127 22.0545 64.8734 21.4526 64.7115C21.3527 64.6868 21.4154 64.275 21.5277 64.2873C22.0063 64.3412 22.4878 64.3662 22.9694 64.3621C23.8967 64.3621 24.6737 64.2873 25.3128 64.2873C27.2557 64.2873 28.8634 64.9984 28.8634 66.9574C28.8601 69.1753 26.7669 70.1108 23.9975 69.6989ZM23.9975 65.9314V69.0882C26.1278 69.3874 27.2433 68.8761 27.2433 67.2418C27.2706 66.9383 27.2319 66.6324 27.1299 66.3451C27.0279 66.0578 26.8649 65.7957 26.652 65.5767C26.4392 65.3577 26.1814 65.1869 25.8964 65.0759C25.6113 64.9649 25.3055 64.9163 24.9999 64.9335C24.2105 64.9335 23.9975 65.2072 23.9975 65.9314Z" fill="white"/>
<path d="M32.3978 69.7729V65.8549C32.4179 65.7124 32.4064 65.5672 32.3641 65.4296C32.3219 65.2919 32.2499 65.1651 32.1532 65.0581C32.0564 64.9511 31.9374 64.8665 31.8043 64.8102C31.6713 64.7538 31.5275 64.7272 31.383 64.732C31.2822 64.7189 31.3574 64.307 31.4573 64.307H34.8791C34.979 64.307 35.055 64.7181 34.9542 64.732C34.8107 64.729 34.6683 64.757 34.5368 64.8141C34.4053 64.8713 34.2878 64.9562 34.1925 65.063C34.0971 65.1698 34.0263 65.2959 33.9847 65.4326C33.9432 65.5694 33.9319 65.7135 33.9518 65.8549V69.8354C33.9518 71.5815 34.9666 72.3928 36.2952 72.3928C36.6334 72.4151 36.9723 72.3634 37.2883 72.2413C37.6042 72.1192 37.8895 71.9296 38.124 71.686C38.3585 71.4425 38.5366 71.1507 38.6458 70.8313C38.7549 70.5118 38.7925 70.1725 38.7558 69.8371V65.8566C38.7558 65.0452 38.2918 64.82 37.6824 64.7337C37.5949 64.7205 37.6576 64.3087 37.7575 64.3087H40.5724C40.6608 64.3087 40.7376 64.7197 40.6352 64.7337C40.4917 64.7307 40.3493 64.7586 40.2178 64.8158C40.0863 64.8729 39.9687 64.9578 39.8734 65.0646C39.7781 65.1714 39.7072 65.2975 39.6656 65.4343C39.6241 65.571 39.6129 65.7151 39.6328 65.8566V69.7614C39.6714 70.2273 39.6079 70.6959 39.4467 71.135C39.2854 71.574 39.0303 71.9729 38.6988 72.304C38.3674 72.6351 37.9676 72.8906 37.5272 73.0527C37.0868 73.2148 36.6163 73.2797 36.1482 73.2428C34.3795 73.2428 32.3978 72.3065 32.3978 69.7729ZM36.0822 61.2004C36.3084 60.8716 37.3612 61.8367 37.0598 62.0611L35.4183 63.2942C35.2531 63.4184 34.8163 63.0197 34.9418 62.8454L36.0822 61.2004Z" fill="white"/>
<path d="M50.6756 70.5235C50.6756 72.0698 49.2587 73.0719 47.1663 73.0719C46.5644 73.0719 45.8625 72.9962 44.9369 72.9962C44.2801 72.9855 43.6232 73.0108 42.9692 73.0719C42.8569 73.0842 42.7933 72.6477 42.8941 72.623C43.6207 72.4356 44.1847 72.323 44.1847 71.399V65.8599C44.1847 65.0609 43.671 64.8488 43.1318 64.709C43.0319 64.6844 43.0947 64.2725 43.1946 64.2849C43.6984 64.3383 44.2048 64.3632 44.7115 64.3597C45.7139 64.3597 46.4529 64.2849 47.0045 64.2849C48.6212 64.2849 49.9498 64.9589 49.9622 66.3318C49.9698 66.7821 49.8145 67.22 49.5247 67.5658C49.2348 67.9115 48.8298 68.142 48.3834 68.2151V68.2899C48.6826 68.2815 48.9805 68.3332 49.2592 68.4419C49.5379 68.5505 49.7918 68.714 50.0057 68.9224C50.2196 69.1308 50.3892 69.38 50.5043 69.6551C50.6194 69.9302 50.6776 70.2255 50.6756 70.5235ZM45.6875 65.8566V68.0762H46.9781C47.1707 68.1022 47.3668 68.0837 47.5511 68.0223C47.7355 67.9608 47.9031 67.8579 48.0412 67.7217C48.1793 67.5854 48.284 67.4194 48.3474 67.2364C48.4107 67.0534 48.431 66.8584 48.4065 66.6663C48.4211 66.4273 48.383 66.1881 48.295 65.9652C48.207 65.7424 48.0711 65.5413 47.8969 65.3762C47.7227 65.2111 47.5144 65.0858 47.2865 65.0092C47.0586 64.9326 46.8167 64.9065 46.5776 64.9327C45.9129 64.9335 45.6916 65.1579 45.6916 65.8566H45.6875ZM49.0589 70.7972C49.0803 70.5186 49.0413 70.2387 48.9446 69.9764C48.848 69.714 48.6959 69.4755 48.4986 69.2767C48.3013 69.078 48.0635 68.9237 47.8012 68.8244C47.5388 68.7251 47.2581 68.683 46.9781 68.701H45.6916V71.3957C45.6916 72.0821 46.0425 72.42 47.1325 72.42C48.2315 72.42 49.0589 72.0944 49.0589 70.7972Z" fill="white"/>
<path d="M53.0731 72.6197C53.8005 72.4323 54.3645 72.3197 54.3645 71.3957V65.8566C54.3645 64.9828 53.8509 64.8077 53.3117 64.7337C53.2118 64.7205 53.2869 64.3087 53.3744 64.3087H56.8334C56.9209 64.3087 56.9837 64.7197 56.8961 64.7337C56.7506 64.7268 56.6053 64.752 56.4706 64.8075C56.3359 64.863 56.2152 64.9473 56.117 65.0546C56.0188 65.1618 55.9456 65.2893 55.9026 65.4279C55.8596 65.5665 55.8478 65.7129 55.8681 65.8566V71.3957C55.8681 72.1076 56.1695 72.3698 57.2099 72.3698C59.1025 72.3698 59.8522 71.5083 60.1544 71.0348C60.2428 70.8967 60.5805 70.96 60.5805 71.1712C60.5805 71.8075 60.0422 73.0685 59.2519 73.0685C58.5501 73.0307 57.8614 72.9929 56.8086 72.9929C55.6526 72.9929 54.2894 72.9559 53.1491 73.0685C53.0235 73.0809 52.9731 72.6443 53.0731 72.6197Z" fill="white"/>
<path d="M62.7893 72.6197C63.4284 72.5317 63.8298 72.2818 63.8298 71.4959V65.8566C63.8298 65.0699 63.4284 64.82 62.7893 64.7337C62.6886 64.7205 62.7638 64.3087 62.8637 64.3087H66.2986C66.3986 64.3087 66.4737 64.7197 66.373 64.7337C65.8346 64.8077 65.3334 64.9803 65.3334 65.8566V71.4959C65.3334 72.3698 65.8346 72.5441 66.373 72.6197C66.4737 72.632 66.3986 73.0439 66.2986 73.0439H62.8661C62.7638 73.0439 62.6886 72.632 62.7893 72.6197Z" fill="white"/>
<path d="M69.021 68.8383C68.9909 68.2018 69.0962 67.5662 69.3298 66.973C69.5635 66.3798 69.9204 65.8424 70.3771 65.3959C70.8337 64.9495 71.38 64.6042 71.98 64.3824C72.58 64.1606 73.2202 64.0674 73.8589 64.109C75.3122 64.109 76.5656 64.5586 76.4186 64.9952L76.2535 65.4818C75.8018 66.8168 75.313 65.1077 73.0827 65.1077C71.2901 65.1077 70.4123 66.2677 70.4123 68.0672C70.3848 68.5856 70.4648 69.104 70.6473 69.5903C70.8298 70.0766 71.1109 70.5202 71.4731 70.8936C71.8353 71.267 72.2708 71.5622 72.7526 71.7607C73.2344 71.9592 73.752 72.0569 74.2734 72.0476C74.9792 71.9913 75.666 71.7918 76.2915 71.4615C76.3914 71.3982 76.6548 71.6859 76.5796 71.7977C75.8849 72.5408 74.9729 73.0473 73.9728 73.2454C71.8673 73.2429 69.021 72.0205 69.021 68.8383Z" fill="white"/>
<path d="M88.0246 73.0439H84.7159C84.5508 73.0439 84.5401 72.6443 84.6788 72.6197C85.142 72.5317 85.6432 72.3731 85.18 71.2962L85.0421 70.9846C84.9166 70.6846 84.7035 70.6558 84.3278 70.6558H81.7681C81.3924 70.6558 81.1794 70.6805 81.0539 70.9846L80.9283 71.2962C80.4899 72.3698 80.9664 72.5293 81.5675 72.6197C81.7326 72.6443 81.6929 73.0439 81.5303 73.0439H78.8228C78.6725 73.0439 78.6345 72.6443 78.7848 72.6197C79.2992 72.5317 79.5997 72.3575 80.0638 71.2962L82.1818 66.4551C82.538 65.8122 82.7557 65.1024 82.8209 64.3711C83.1035 64.2282 83.4195 64.1638 83.7358 64.1845L86.791 71.2838C87.2418 72.3451 87.5423 72.5441 88.0436 72.6197C88.2252 72.6443 88.1749 73.0439 88.0246 73.0439ZM84.5276 69.7614L83.0612 66.2676L81.5823 69.7614C81.5072 69.9365 81.6954 69.9612 81.8713 69.9612H84.2395C84.4178 69.9612 84.6028 69.9373 84.5276 69.7614Z" fill="white"/>
<path d="M94.0963 72.6197C94.823 72.4323 95.3869 72.3197 95.3869 71.3957V65.8566C95.3869 65.0576 94.8734 64.8455 94.3342 64.7058C94.2342 64.6811 94.297 64.2692 94.3969 64.2815C94.9179 64.338 95.4417 64.363 95.9657 64.3564C96.9426 64.3564 97.8203 64.2815 98.4594 64.2815C101.492 64.2815 103.134 66.0786 103.134 68.4864C103.156 69.1012 103.049 69.7137 102.82 70.2851C102.592 70.8565 102.246 71.3741 101.805 71.805C101.364 72.2359 100.837 72.5705 100.259 72.7876C99.6812 73.0048 99.064 73.0996 98.447 73.0661C97.8451 73.0661 97.0681 72.9905 96.1408 72.9905C95.484 72.98 94.8272 73.0053 94.1731 73.0661C94.046 73.0809 93.9964 72.6444 94.0963 72.6197ZM101.629 69.2C101.629 66.816 100.325 64.9458 98.0697 64.9458C97.1796 64.9458 96.8914 65.2195 96.8914 65.8566V71.3957C96.8914 72.0698 97.3546 72.4068 98.5709 72.4068C100.614 72.4035 101.629 71.3085 101.629 69.1975V69.2Z" fill="white"/>
<path d="M105.856 68.7264C105.833 68.1213 105.934 67.5178 106.153 66.953C106.372 66.3882 106.705 65.8739 107.131 65.4416C107.557 65.0093 108.067 64.6681 108.63 64.439C109.193 64.2098 109.797 64.0975 110.405 64.1089C111.005 64.0897 111.602 64.1931 112.159 64.4127C112.717 64.6323 113.224 64.9635 113.648 65.3857C114.072 65.8079 114.404 66.3122 114.625 66.8675C114.845 67.4227 114.949 68.0171 114.929 68.6138C114.955 69.22 114.856 69.8251 114.637 70.3916C114.419 70.9581 114.086 71.4741 113.66 71.9078C113.234 72.3414 112.723 72.6837 112.159 72.9133C111.595 73.1429 110.989 73.255 110.38 73.2428C109.78 73.2596 109.183 73.1541 108.626 72.9329C108.069 72.7117 107.562 72.3794 107.139 71.9565C106.715 71.5335 106.383 71.0289 106.162 70.4734C105.942 69.918 105.837 69.3235 105.856 68.7264ZM113.438 69.3126C113.438 66.7921 111.722 64.9556 109.917 64.9556C108.813 64.9556 107.357 65.679 107.357 68.0252C107.357 70.5736 109.074 72.392 110.865 72.392C111.972 72.3945 113.438 71.6711 113.438 69.3126Z" fill="white"/>
<path d="M128.571 73.0439H125.299C125.212 73.0439 125.149 72.6329 125.224 72.6197C125.36 72.6141 125.493 72.5791 125.614 72.5171C125.735 72.4551 125.841 72.3675 125.925 72.2606C126.008 72.1536 126.067 72.0297 126.098 71.8977C126.129 71.7657 126.13 71.6285 126.102 71.496L125.864 67.3035L123.833 71.422C123.624 71.8325 123.456 72.2627 123.332 72.7061C123.307 72.8565 123.043 72.9313 122.843 72.9313C122.763 72.9376 122.683 72.9194 122.613 72.8792C122.544 72.8389 122.489 72.7785 122.455 72.7061L119.56 67.2418L119.371 71.496C119.333 72.3698 119.848 72.5687 120.249 72.6197C120.349 72.632 120.274 73.0439 120.186 73.0439H117.591C117.491 73.0439 117.416 72.6329 117.516 72.6197C118.055 72.5564 118.507 72.3731 118.556 71.496L118.958 64.3342C118.97 64.1213 119.447 64.1089 119.572 64.3342L123.205 71.0965L126.577 64.3342C126.69 64.1089 127.191 64.1213 127.203 64.3342L127.605 71.496C127.655 72.3698 128.106 72.5564 128.633 72.6197C128.733 72.632 128.658 73.0439 128.571 73.0439Z" fill="white"/>
<path d="M131.144 72.6197C131.784 72.5317 132.185 72.2818 132.185 71.4959V65.8566C132.185 65.0699 131.784 64.82 131.144 64.7337C131.045 64.7205 131.12 64.3087 131.22 64.3087H134.654C134.755 64.3087 134.829 64.7197 134.729 64.7337C134.191 64.8077 133.689 64.9803 133.689 65.8566V71.4959C133.689 72.3698 134.191 72.5441 134.729 72.6197C134.829 72.632 134.755 73.0439 134.654 73.0439H131.22C131.12 73.0439 131.045 72.632 131.144 72.6197Z" fill="white"/>
<path d="M145.034 72.9313L139.068 66.7165V71.459C139.068 72.3065 139.57 72.4455 140.284 72.6197C140.384 72.6444 140.334 73.044 140.209 73.044H137.236C137.135 73.044 137.06 72.6567 137.173 72.6197C137.699 72.4446 138.201 72.3452 138.201 71.459V66.617C138.263 65.9982 138.099 65.3776 137.737 64.8702C137.624 64.7206 137.512 64.6236 137.512 64.5833C137.509 64.5142 137.533 64.4467 137.579 64.3953C137.625 64.3439 137.69 64.3127 137.76 64.3087H138.687C138.743 64.3014 138.799 64.3078 138.852 64.3275C138.904 64.3471 138.951 64.3794 138.988 64.4214L144.829 70.5728V65.8813C144.829 64.9952 144.265 64.8948 143.612 64.7304C143.512 64.7049 143.563 64.3055 143.688 64.3055H146.661C146.761 64.3055 146.826 64.7049 146.724 64.7304C146.172 64.8948 145.696 64.9919 145.696 65.8813V70.7315C145.67 71.4666 145.72 72.2024 145.846 72.9272C145.896 73.1146 145.696 73.164 145.495 73.164C145.405 73.1642 145.317 73.1433 145.237 73.1028C145.156 73.0624 145.087 73.0036 145.034 72.9313Z" fill="white"/>
<path d="M149.237 72.6197C149.877 72.5317 150.277 72.2818 150.277 71.4959V65.8566C150.277 65.0699 149.877 64.82 149.237 64.7337C149.137 64.7205 149.212 64.3087 149.313 64.3087H152.746C152.847 64.3087 152.922 64.7197 152.822 64.7337C152.283 64.8077 151.782 64.9803 151.782 65.8566V71.4959C151.782 72.3698 152.283 72.5441 152.822 72.6197C152.922 72.632 152.847 73.0439 152.746 73.0439H149.313C149.211 73.0439 149.136 72.632 149.237 72.6197Z" fill="white"/>
<path d="M155.468 68.8382C155.437 68.2016 155.542 67.5657 155.775 66.9722C156.008 66.3787 156.365 65.841 156.822 65.3944C157.278 64.9479 157.825 64.6025 158.425 64.3809C159.025 64.1594 159.666 64.0667 160.305 64.1089C161.759 64.1089 163.012 64.5586 162.865 64.9951L162.699 65.4818C162.248 66.8168 161.759 65.1077 159.529 65.1077C157.736 65.1077 156.859 66.2677 156.859 68.0672C156.832 68.5854 156.911 69.1037 157.094 69.5898C157.276 70.076 157.557 70.5196 157.919 70.8929C158.281 71.2663 158.717 71.5615 159.198 71.7602C159.68 71.9588 160.197 72.0566 160.718 72.0476C161.424 71.9915 162.111 71.792 162.736 71.4614C162.837 71.3981 163.1 71.6858 163.025 71.7976C162.33 72.541 161.418 73.0476 160.418 73.2453C158.312 73.2429 155.468 72.0204 155.468 68.8382Z" fill="white"/>
<path d="M174.472 73.0439H171.162C170.997 73.0439 170.987 72.6443 171.125 72.6197C171.589 72.5317 172.09 72.3731 171.626 71.2962L171.488 70.9846C171.363 70.6846 171.15 70.6558 170.774 70.6558H168.214C167.838 70.6558 167.625 70.6805 167.5 70.9846L167.375 71.2962C166.935 72.3698 167.412 72.5293 168.014 72.6197C168.179 72.6443 168.139 73.0439 167.976 73.0439H165.272C165.122 73.0439 165.084 72.6443 165.234 72.6197C165.748 72.5317 166.049 72.3575 166.513 71.2962L168.631 66.4551C168.988 65.8122 169.205 65.1024 169.27 64.3711C169.553 64.2282 169.869 64.1638 170.185 64.1845L173.24 71.2838C173.692 72.3451 173.993 72.5441 174.494 72.6197C174.669 72.6443 174.622 73.0439 174.472 73.0439ZM170.975 69.7614L169.508 66.2676L168.029 69.7614C167.954 69.9365 168.143 69.9612 168.318 69.9612H170.687C170.862 69.9612 171.05 69.9373 170.975 69.7614Z" fill="white"/>
<path d="M184.678 72.9313L178.712 66.7165V71.459C178.712 72.3065 179.213 72.4455 179.928 72.6197C180.028 72.6444 179.978 73.044 179.852 73.044H176.88C176.78 73.044 176.705 72.6567 176.817 72.6197C177.343 72.4446 177.845 72.3452 177.845 71.459V66.617C177.908 65.998 177.743 65.3773 177.381 64.8702C177.269 64.7206 177.156 64.6236 177.156 64.5833C177.152 64.5142 177.176 64.4467 177.223 64.3953C177.269 64.3439 177.334 64.3127 177.403 64.3087H178.331C178.386 64.3014 178.443 64.3078 178.495 64.3275C178.548 64.3471 178.594 64.3794 178.631 64.4214L184.472 70.5728V65.8813C184.472 64.9952 183.908 64.8948 183.256 64.7304C183.155 64.7049 183.206 64.3055 183.331 64.3055H186.304C186.405 64.3055 186.469 64.7049 186.367 64.7304C185.815 64.8948 185.339 64.9919 185.339 65.8813V70.7315C185.313 71.4666 185.364 72.2024 185.49 72.9272C185.539 73.1146 185.339 73.164 185.139 73.164C185.049 73.164 184.96 73.1429 184.88 73.1025C184.8 73.0621 184.731 73.0035 184.678 72.9313Z" fill="white"/>
<path d="M197.615 73.0439H194.307C194.142 73.0439 194.131 72.6443 194.269 72.6197C194.733 72.5317 195.234 72.3731 194.77 71.2962L194.632 70.9846C194.507 70.6846 194.293 70.6558 193.918 70.6558H191.358C190.982 70.6558 190.769 70.6805 190.644 70.9846L190.518 71.2962C190.08 72.3698 190.556 72.5293 191.157 72.6197C191.323 72.6443 191.283 73.0439 191.119 73.0439H188.413C188.262 73.0439 188.224 72.6443 188.375 72.6197C188.888 72.5317 189.19 72.3575 189.654 71.2962L191.772 66.4551C192.128 65.8122 192.346 65.1024 192.411 64.3711C192.693 64.2282 193.009 64.1638 193.326 64.1845L196.381 71.2838C196.833 72.3451 197.133 72.5441 197.634 72.6197C197.816 72.6443 197.766 73.0439 197.615 73.0439ZM194.118 69.7614L192.652 66.2676L191.173 69.7614C191.098 69.9365 191.286 69.9612 191.461 69.9612H193.83C194.005 69.9612 194.194 69.9373 194.118 69.7614Z" fill="white"/>
<path d="M45.8288 81.7191H0.249023V79.2529H45.8288" fill="#EE2A24"/>
</svg>
