<?xml version="1.0" encoding="utf-8"?>
<!-- Generator: Adobe Illustrator 23.0.1, SVG Export Plug-In . SVG Version: 6.00 Build 0)  -->
<svg version="1.1" id="Layer_1" xmlns="http://www.w3.org/2000/svg" xmlns:xlink="http://www.w3.org/1999/xlink" x="0px" y="0px"
	 viewBox="0 0 792 360" style="enable-background:new 0 0 792 360;" xml:space="preserve">
<style type="text/css">
	.st0{fill-rule:evenodd;clip-rule:evenodd;fill:#FFFFFF;}
	.st1{fill-rule:evenodd;clip-rule:evenodd;fill:#ED1C24;}
</style>
<g>
	<path class="st0" d="M25.5,230.36h2.64v-8.25h5.68c4.97,0,9.18-2.61,9.18-7.65v-0.07c0-4.61-3.48-7.41-8.75-7.41H25.5V230.36
		L25.5,230.36z M28.14,219.71v-10.29h5.91c3.78,0,6.29,1.74,6.29,5.07v0.07c0,3.08-2.55,5.15-6.42,5.15H28.14L28.14,219.71z
		 M51.62,230.36h2.64v-9.09h6.61h0.08l6.78,9.09h3.24l-7.19-9.55c3.67-0.67,6.35-2.94,6.35-6.82v-0.07c0-1.84-0.67-3.47-1.81-4.61
		c-1.47-1.47-3.77-2.33-6.65-2.33H51.62V230.36L51.62,230.36z M54.26,218.9v-9.49h7.21c3.78,0,5.97,1.74,5.97,4.61v0.07
		c0,3-2.5,4.81-6.01,4.81H54.26L54.26,218.9z M79.58,230.36h17.07v-2.4H82.22v-8.18h12.76v-2.4H82.22v-7.98h14.26v-2.4h-16.9V230.36
		L79.58,230.36z M113.79,230.69c4.64,0,7.98-2.6,7.98-6.61v-0.07c0-3.58-2.41-5.48-7.61-6.62c-5.15-1.1-6.35-2.34-6.35-4.54v-0.07
		c0-2.1,1.94-3.77,4.98-3.77c2.41,0,4.57,0.77,6.75,2.54l1.53-2.03c-2.37-1.9-4.81-2.88-8.22-2.88c-4.44,0-7.68,2.71-7.68,6.38v0.07
		c0,3.84,2.47,5.58,7.85,6.75c4.9,1.03,6.08,2.27,6.08,4.44v0.07c0,2.3-2.07,3.98-5.21,3.98c-3.25,0-5.59-1.11-8.02-3.3l-1.64,1.93
		C107.04,229.46,110.08,230.69,113.79,230.69L113.79,230.69z M131.2,230.36h2.64v-23.38h-2.64V230.36L131.2,230.36z M144.49,230.36
		h8.12c7.35,0,12.42-5.11,12.42-11.69v-0.07c0-6.58-5.08-11.62-12.42-11.62h-8.12V230.36L144.49,230.36z M147.13,227.92v-18.5h5.48
		c5.91,0,9.69,4.07,9.69,9.25v0.07c0,5.18-3.78,9.18-9.69,9.18H147.13L147.13,227.92z M174.42,230.36h17.07v-2.4h-14.43v-8.18h12.76
		v-2.4h-12.76v-7.98h14.26v-2.4h-16.9V230.36L174.42,230.36z M200.61,230.36h2.57v-19.17l15.09,19.17h2.11v-23.38h-2.58v18.74
		l-14.73-18.74h-2.47V230.36L200.61,230.36z M241.5,230.76c4.24,0,6.91-1.64,9.35-4.11l-1.74-1.7c-2.23,2.14-4.34,3.38-7.55,3.38
		c-5.14,0-9.05-4.24-9.05-9.66v-0.07c0-5.38,3.87-9.58,9.05-9.58c3.17,0,5.38,1.33,7.35,3.2l1.81-1.93
		c-2.34-2.21-4.88-3.71-9.12-3.71c-6.88,0-11.83,5.48-11.83,12.09v0.07C229.77,225.45,234.75,230.76,241.5,230.76L241.5,230.76z
		 M259.5,230.36h2.64v-23.38h-2.64V230.36L259.5,230.36z M270.8,230.36h2.7l2.77-6.18H289l2.75,6.18h2.83l-10.65-23.55h-2.47
		L270.8,230.36L270.8,230.36z M277.32,221.81l5.34-11.93l5.31,11.93H277.32L277.32,221.81z M316.82,230.36h8.12
		c7.35,0,12.42-5.11,12.42-11.69v-0.07c0-6.58-5.08-11.62-12.42-11.62h-8.12V230.36L316.82,230.36z M319.46,227.92v-18.5h5.48
		c5.91,0,9.69,4.07,9.69,9.25v0.07c0,5.18-3.78,9.18-9.69,9.18H319.46L319.46,227.92z M346.75,230.36h17.07v-2.4h-14.43v-8.18h12.76
		v-2.4h-12.76v-7.98h14.26v-2.4h-16.9V230.36L346.75,230.36z M386.77,230.36h15.8v-2.44h-13.16v-20.93h-2.64V230.36L386.77,230.36z
		 M409.26,230.36h2.7l2.77-6.18h12.73l2.74,6.18h2.83l-10.65-23.55h-2.47L409.26,230.36L409.26,230.36z M415.77,221.81l5.34-11.93
		l5.31,11.93H415.77L415.77,221.81z M56.38,285.95c-1.07,0-2.5-0.53-4.01-2.42l-7.18-9.01c-2.13-2.65-3.53-3.47-5.46-3.47v-0.25
		c4.05-0.25,8.59-3,8.59-8.59c0-5.94-4.87-8.93-12.16-8.93c-2.31,0-5.65,0.3-9.22,0.3c-1.55,0-3.67-0.05-5.55-0.05
		c-0.42-0.04-0.67,1.55-0.29,1.64c2.33,0.63,4.01,1.55,4.01,4.73v21.51c0,3.04-1.55,4.01-4.01,4.35c-0.38,0.04-0.1,1.64,0.29,1.64
		h14.62c0.4,0,0.63-1.6,0.29-1.64c-3.08-0.4-5.4-0.97-5.4-4.35v-9.35c3.38,0.04,5.84,0.44,7.92,3.13l7.43,9.56
		c2.9,3.71,7.1,3.86,10.13,2.84c0.29-0.09,0.38-1.41,0-1.41V285.95L56.38,285.95z M32.31,269.84H30.9v-9.94
		c0-2.71,0.92-3.86,3.78-3.86c4.29,0,7.56,2.56,7.56,7.71C42.24,268.58,39.49,269.84,32.31,269.84L32.31,269.84z M64.44,287.25
		c4.4-0.44,9.66-0.29,14.1-0.29c4.05,0,6.7,0.14,9.41,0.14c3.04,0,5.1-4.87,5.1-7.33c0-0.82-1.3-1.05-1.63-0.53
		c-1.16,1.83-4.06,5.17-11.35,5.17c-3.99,0-5.16-1.01-5.16-3.76v-8.11c0-1.26,0.63-1.49,1.59-1.49h0.68c2.79,0,5.25,0.63,6.36,2.16
		c0.53,0.73,1.26,0.82,1.64-0.04l2.76-6.09c0.42-0.96-0.63-1.05-1.12-0.61c-1.97,1.78-5.35,2.16-9.26,2.16H76.5
		c-0.96,0-1.59-0.23-1.59-1.49v-7.86c0-2.52,1.11-3.38,4.49-3.38c6.03,0,7.48,1.35,8.21,3.72c0.19,0.67,1.39,0.67,1.55,0l1.15-4.6
		c0.25-1.11,0.25-1.87-0.92-1.87c-3.95,0.1-7.14,0.29-11.53,0.29c-2.94,0-9.01,0.1-12.54,0.1c-0.38-0.04-0.63,1.55-0.25,1.64
		c2.08,0.53,4.06,1.35,4.06,4.45v21.42c0,3.57-2.17,4.01-4.98,4.73c-0.38,0.1-0.19,1.78,0.29,1.74V287.25L64.44,287.25z
		 M131.03,263.6c0-7.56-6.17-10.32-13.65-10.32c-2.46,0-5.46,0.3-9.03,0.3c-1.55,0-3.66-0.05-5.55-0.05
		c-0.42-0.04-0.67,1.55-0.29,1.64c2.33,0.63,4.01,1.55,4.01,4.73v21.51c0,3.04-1.55,4.01-4.01,4.35c-0.38,0.04-0.1,1.64,0.29,1.64
		h14.62c0.4,0,0.63-1.6,0.29-1.64c-3.08-0.4-5.4-0.97-5.4-4.35v-6.95c10.67,1.6,18.72-2.02,18.72-10.61V263.6L131.03,263.6z
		 M116.17,256.04c4.97,0,8.63,3.17,8.63,8.92c0,6.32-4.29,8.3-12.5,7.14v-12.2C112.3,257.09,113.12,256.04,116.17,256.04
		L116.17,256.04z M154.43,247.73c-0.48,0.67,1.22,2.22,1.85,1.74l6.32-4.77c1.15-0.88-2.9-4.6-3.76-3.34L154.43,247.73
		L154.43,247.73z M159.06,287.92c7.67,0,13.42-4.58,13.42-13.46v-15.1c0-3.38,1.93-4.1,3.86-4.35c0.38-0.04,0.1-1.63-0.25-1.63
		h-10.85c-0.4,0-0.63,1.59-0.29,1.63c2.35,0.34,4.14,1.22,4.14,4.35v15.39c0,6.76-4.2,9.9-9.46,9.9c-5.1,0-9.01-3.15-9.01-9.9
		v-15.39c0-3.38,1.93-4.1,3.86-4.35c0.38-0.04,0.1-1.63-0.29-1.63h-13.17c-0.38,0-0.68,1.59-0.29,1.63c2.35,0.3,3.9,1.31,3.9,4.35
		v15.15C144.63,284.31,152.26,287.92,159.06,287.92L159.06,287.92z M206.15,268.77v-0.29c3.38-0.68,6.14-3.38,6.09-7.29
		c-0.05-5.31-5.15-7.92-11.39-7.92c-2.12,0-4.96,0.3-8.82,0.3c-1.55,0-3.86-0.05-5.84-0.05c-0.38-0.04-0.63,1.55-0.25,1.64
		c2.08,0.53,4.06,1.35,4.06,4.45v21.42c0,3.57-2.17,4.01-4.98,4.73c-0.38,0.1-0.14,1.78,0.29,1.74c2.23-0.25,4.54-0.29,7.58-0.29
		c3.57,0,6.28,0.29,8.59,0.29c8.06,0,13.51-3.87,13.51-9.85c0-5.4-4.34-8.63-8.84-8.63V268.77L206.15,268.77z M199.2,256.04
		c3.97,0,7.06,2.12,7.06,6.7c0,3.72-2.04,5.46-5.51,5.46h-4.96v-8.59C195.78,256.9,196.66,256.04,199.2,256.04L199.2,256.04z
		 M201.34,284.97c-4.2,0-5.55-1.3-5.55-3.95V270.6h4.96c4.49,0,8.01,2.8,8.01,8.11C208.76,283.73,205.58,284.97,201.34,284.97
		L201.34,284.97z M224.72,287.25c4.4-0.44,9.66-0.29,14.1-0.29c4.05,0,6.7,0.14,9.41,0.14c3.04,0,5.1-4.87,5.1-7.33
		c0-0.82-1.3-1.05-1.63-0.53c-1.16,1.83-4.06,5.17-11.35,5.17c-3.99,0-5.16-1.01-5.16-3.76v-21.43c0-3.38,1.93-4.09,3.95-4.34
		c0.34-0.05,0.1-1.64-0.23-1.64H225.6c-0.34,0-0.63,1.59-0.25,1.64c2.08,0.29,4.06,0.96,4.06,4.34v21.43c0,3.57-2.18,4.01-4.98,4.72
		c-0.38,0.11-0.19,1.79,0.29,1.74V287.25L224.72,287.25z M262.11,287.15h13.23c0.38,0,0.67-1.59,0.29-1.64
		c-2.08-0.29-4.01-0.97-4.01-4.34v-21.81c0-3.38,1.93-4.05,4.01-4.35c0.38-0.04,0.1-1.63-0.29-1.63h-13.23
		c-0.38,0-0.67,1.59-0.29,1.63c2.46,0.34,4.01,1.31,4.01,4.35v21.81c0,3.04-1.55,3.99-4.01,4.34
		C261.44,285.56,261.73,287.15,262.11,287.15L262.11,287.15z M304.86,287.92c1.49,0,7.96-2.56,10.02-5.59
		c0.29-0.44-0.73-1.55-1.11-1.3c-2.5,1.59-6.89,2.27-7.77,2.27c-6.61,0-14.85-4.54-14.85-15.4c0-6.95,3.38-11.43,10.27-11.43
		c8.59,0,10.48,6.62,12.21,1.45l0.62-1.87c0.59-1.7-4.24-3.43-9.83-3.43c-13.51,0-18.63,9.94-18.63,18.28
		C285.8,283.2,296.75,287.92,304.86,287.92L304.86,287.92z M359.03,285.51c-1.93-0.29-3.08-1.07-4.81-5.16l-11.78-27.46
		c-0.15-0.33-3.53,0.44-3.53,0.73c0,1.83-0.57,3.82-2.46,8.06l-8.15,18.72c-1.78,4.1-2.94,4.77-4.92,5.11
		c-0.57,0.1-0.42,1.64,0.15,1.64h10.42c0.63,0,0.77-1.55,0.15-1.64c-2.32-0.34-4.16-0.97-2.46-5.11l0.48-1.2
		c0.48-1.16,1.3-1.26,2.75-1.26h9.85c1.45,0,2.27,0.09,2.75,1.26l0.53,1.2c1.78,4.14-0.15,4.77-1.94,5.11
		c-0.52,0.1-0.48,1.64,0.15,1.64h12.73C359.52,287.15,359.71,285.6,359.03,285.51L359.03,285.51z M344.37,275.24h-9.12
		c-0.67,0-1.39-0.1-1.11-0.78l5.69-13.51l5.65,13.51C345.76,275.14,345.04,275.24,344.37,275.24L344.37,275.24z M382.57,287.25
		c2.23-0.25,4.6-0.29,7.58-0.29c3.57,0,6.56,0.29,8.88,0.29c11.73,0,18.05-8.44,18.05-17.71c0-9.31-6.32-16.26-18-16.26
		c-2.46,0-5.84,0.3-9.6,0.3c-2.02,0-4.05-0.05-6.03-0.05c-0.38-0.04-0.63,1.55-0.25,1.64c2.08,0.53,4.06,1.35,4.06,4.45v21.42
		c0,3.57-2.17,4.01-4.98,4.73c-0.38,0.1-0.19,1.78,0.29,1.74V287.25L382.57,287.25z M399.51,284.93c-4.68,0-6.47-1.31-6.47-3.91
		v-21.42c0-2.46,1.11-3.53,4.54-3.53c8.68,0,13.7,7.23,13.7,16.45C411.29,280.68,407.38,284.93,399.51,284.93L399.51,284.93z
		 M444.96,287.92c10.61,0,17.51-8.1,17.51-17.89c0-10.04-7.33-17.42-17.41-17.42c-10.57,0-17.52,8.11-17.52,17.85
		C427.54,280.49,434.92,287.92,444.96,287.92L444.96,287.92z M446.83,284.65c-6.89,0-13.51-7.06-13.51-16.89
		c0-9.07,5.61-11.87,9.85-11.87c6.95,0,13.55,7.1,13.55,16.84C456.72,281.84,451.09,284.65,446.83,284.65L446.83,284.65z
		 M515.19,285.51c-2.02-0.25-3.76-0.97-3.95-4.34l-1.55-27.69c-0.04-0.82-1.97-0.88-2.41,0l-12.98,26.15l-13.99-26.15
		c-0.48-0.88-2.33-0.82-2.37,0l-1.55,27.69c-0.19,3.36-1.93,4.09-4.01,4.34c-0.38,0.05-0.1,1.64,0.29,1.64h10
		c0.33,0,0.63-1.59,0.23-1.64c-1.55-0.19-3.51-0.97-3.38-4.34l0.73-16.45l11.15,21.13c0.29,0.57,0.78,0.86,1.5,0.86
		c0.77,0,1.78-0.29,1.87-0.29c0.15-0.77,0.92-2.9,1.93-4.97l7.82-15.92l0.92,16.21c0.14,3.04-1.35,4.01-3.38,4.34
		c-0.29,0.05-0.05,1.64,0.29,1.64h12.6c0.33,0,0.63-1.59,0.23-1.64V285.51L515.19,285.51z M525.14,287.15h13.22
		c0.38,0,0.67-1.59,0.29-1.64c-2.08-0.29-4.01-0.97-4.01-4.34v-21.81c0-3.38,1.93-4.05,4.01-4.35c0.38-0.04,0.1-1.63-0.29-1.63
		h-13.22c-0.38,0-0.67,1.59-0.29,1.63c2.46,0.34,4.01,1.31,4.01,4.35v21.81c0,3.04-1.54,3.99-4.01,4.34
		C524.47,285.56,524.75,287.15,525.14,287.15L525.14,287.15z M580.09,287.63c0.77,0,1.55-0.19,1.35-0.92
		c-0.48-1.78-0.59-5.31-0.59-8.49v-18.76c0-3.42,1.85-3.82,3.97-4.44c0.38-0.1,0.14-1.63-0.25-1.63h-11.43
		c-0.48,0-0.67,1.53-0.29,1.63c2.5,0.63,4.68,1.03,4.68,4.44v18.13l-22.48-23.78c-0.34-0.38-0.67-0.42-1.16-0.42h-3.57
		c-0.67,0-0.96,0.61-0.96,1.05c0,0.15,0.44,0.53,0.86,1.11c1.26,1.7,1.79,3.34,1.79,6.76v18.72c0,3.42-1.93,3.82-3.95,4.49
		c-0.44,0.15-0.15,1.64,0.23,1.64h11.43c0.49,0,0.68-1.55,0.29-1.64c-2.75-0.67-4.68-1.2-4.68-4.49v-18.34l22.98,24.03
		C578.83,287.3,579.27,287.63,580.09,287.63L580.09,287.63z M594.75,287.15h13.23c0.38,0,0.67-1.59,0.29-1.64
		c-2.08-0.29-4.01-0.97-4.01-4.34v-21.81c0-3.38,1.93-4.05,4.01-4.35c0.38-0.04,0.1-1.63-0.29-1.63h-13.23
		c-0.38,0-0.67,1.59-0.29,1.63c2.46,0.34,4.01,1.31,4.01,4.35v21.81c0,3.04-1.55,3.99-4.01,4.34
		C594.08,285.56,594.37,287.15,594.75,287.15L594.75,287.15z M637.5,287.92c1.49,0,7.96-2.56,10.02-5.59
		c0.29-0.44-0.73-1.55-1.11-1.3c-2.5,1.59-6.89,2.27-7.77,2.27c-6.61,0-14.85-4.54-14.85-15.4c0-6.95,3.38-11.43,10.27-11.43
		c8.59,0,10.48,6.62,12.21,1.45l0.62-1.87c0.59-1.7-4.24-3.43-9.83-3.43c-13.51,0-18.63,9.94-18.63,18.28
		C618.44,283.2,629.39,287.92,637.5,287.92L637.5,287.92z M691.67,285.51c-1.93-0.29-3.08-1.07-4.81-5.16l-11.77-27.46
		c-0.15-0.33-3.53,0.44-3.53,0.73c0,1.83-0.57,3.82-2.46,8.06l-8.15,18.72c-1.78,4.1-2.94,4.77-4.92,5.11
		c-0.57,0.1-0.42,1.64,0.15,1.64h10.42c0.63,0,0.77-1.55,0.15-1.64c-2.32-0.34-4.16-0.97-2.46-5.11l0.48-1.2
		c0.48-1.16,1.3-1.26,2.75-1.26h9.85c1.45,0,2.27,0.09,2.75,1.26l0.53,1.2c1.78,4.14-0.15,4.77-1.94,5.11
		c-0.52,0.1-0.48,1.64,0.15,1.64h12.73C692.16,287.15,692.35,285.6,691.67,285.51L691.67,285.51z M677.01,275.24h-9.12
		c-0.67,0-1.39-0.1-1.11-0.78l5.69-13.51l5.65,13.51C678.4,275.14,677.68,275.24,677.01,275.24L677.01,275.24z M732.63,287.63
		c0.77,0,1.55-0.19,1.35-0.92c-0.48-1.78-0.59-5.31-0.59-8.49v-18.76c0-3.42,1.85-3.82,3.97-4.44c0.38-0.1,0.14-1.63-0.25-1.63
		h-11.43c-0.48,0-0.67,1.53-0.29,1.63c2.5,0.63,4.68,1.03,4.68,4.44v18.13l-22.48-23.78c-0.34-0.38-0.67-0.42-1.16-0.42h-3.57
		c-0.67,0-0.96,0.61-0.96,1.05c0,0.15,0.44,0.53,0.86,1.11c1.26,1.7,1.79,3.34,1.79,6.76v18.72c0,3.42-1.93,3.82-3.95,4.49
		c-0.44,0.15-0.15,1.64,0.23,1.64h11.43c0.49,0,0.68-1.55,0.29-1.64c-2.75-0.67-4.68-1.2-4.68-4.49v-18.34l22.98,24.03
		C731.37,287.3,731.81,287.63,732.63,287.63L732.63,287.63z M780.72,285.51c-1.93-0.29-3.08-1.07-4.81-5.16l-11.78-27.46
		c-0.15-0.33-3.53,0.44-3.53,0.73c0,1.83-0.57,3.82-2.46,8.06l-8.15,18.72c-1.78,4.1-2.94,4.77-4.92,5.11
		c-0.57,0.1-0.42,1.64,0.15,1.64h10.42c0.63,0,0.77-1.55,0.15-1.64c-2.32-0.34-4.16-0.97-2.46-5.11l0.48-1.2
		c0.48-1.16,1.3-1.26,2.75-1.26h9.85c1.45,0,2.27,0.09,2.75,1.26l0.53,1.2c1.78,4.14-0.15,4.77-1.94,5.11
		c-0.52,0.1-0.48,1.64,0.15,1.64h12.73C781.22,287.15,781.41,285.6,780.72,285.51L780.72,285.51z M766.06,275.24h-9.12
		c-0.67,0-1.39-0.1-1.11-0.78l5.69-13.51l5.65,13.51C767.46,275.14,766.73,275.24,766.06,275.24L766.06,275.24z M137.42,71.35
		c32.41,11.19,55.77,42.57,55.85,79.55h-12.53c-1.75-21.35-7.9-39.74-17.54-54.34C156.29,86.1,147.59,77.59,137.42,71.35
		L137.42,71.35z M172.75,150.9c-1.71-19.69-7.37-36.59-16.18-49.94c-7.88-11.93-18.29-21.04-30.63-26.77
		c9.56,11.71,15.64,24.11,19.44,36.31c4.43,14.24,5.72,28.17,5.81,40.4H172.75L172.75,150.9z M143.22,150.9
		c-0.09-11.56-1.31-24.7-5.46-38.06c-4.08-13.12-11.02-26.49-22.56-38.83v76.89H143.22L143.22,150.9z M107.21,150.9H79.19
		c0.09-11.56,1.31-24.7,5.46-38.06c4.08-13.12,11.02-26.49,22.56-38.83V150.9L107.21,150.9z M71.24,150.9
		c0.09-12.22,1.38-26.16,5.81-40.4c3.79-12.2,9.87-24.6,19.44-36.31c-12.35,5.73-22.76,14.83-30.63,26.77
		c-8.81,13.35-14.47,30.24-16.18,49.94H71.24L71.24,150.9z M41.67,150.9c1.75-21.35,7.9-39.74,17.54-54.34
		c6.91-10.47,15.62-18.98,25.78-25.22c-32.41,11.19-55.77,42.57-55.85,79.55H41.67L41.67,150.9z M50.02,162.12v8.2
		c0,0.64-0.52,1.16-1.16,1.16h-6.69c-0.64,0-1.16-0.52-1.16-1.16v-8.2H50.02L50.02,162.12z M79.79,162.12v8.2
		c0,0.64-0.52,1.16-1.16,1.16h-6.69c-0.64,0-1.16-0.52-1.16-1.16v-8.2H79.79L79.79,162.12z M115.69,162.12v8.2
		c0,0.64-0.52,1.16-1.16,1.16h-6.69c-0.64,0-1.16-0.52-1.16-1.16v-8.2H115.69L115.69,162.12z M142.57,162.12v8.2
		c0,0.64,0.52,1.16,1.16,1.16h6.69c0.64,0,1.16-0.52,1.16-1.16v-8.2H142.57L142.57,162.12z M172.35,162.12v8.2
		c0,0.64,0.52,1.16,1.16,1.16h6.69c0.64,0,1.16-0.52,1.16-1.16v-8.2H172.35L172.35,162.12z M180.2,153.43h-6.69
		c-0.64,0-1.16,0.52-1.16,1.16v2.38h-3.05h-14.79h-2.92v-2.38c0-0.64-0.52-1.16-1.16-1.16h-6.69c-0.64,0-1.16,0.52-1.16,1.16v2.38
		h-3.05h-20.91h-2.92v-2.38c0-0.64-0.52-1.16-1.16-1.16h-6.69c-0.64,0-1.16,0.52-1.16,1.16v2.38h-3.05H82.72h-2.92v-2.38
		c0-0.64-0.52-1.16-1.16-1.16h-6.69c-0.64,0-1.16,0.52-1.16,1.16v2.38h-3.05H52.94h-2.92v-2.38c0-0.64-0.52-1.16-1.16-1.16h-6.69
		c-0.64,0-1.16,0.52-1.16,1.16v2.38h-3.05H23.94v3.06H41h9.01h20.76h9.01h26.88h9.01h26.88h9.01h20.76h9.02h16.9v-3.06h-13.98h-2.92
		v-2.38C181.36,153.95,180.84,153.43,180.2,153.43L180.2,153.43z M95.06,65.88h31.97c0.3,0,0.54,0.24,0.54,0.54v1.77
		c0,0.3-0.24,0.54-0.54,0.54H95.06c-0.3,0-0.54-0.24-0.54-0.54v-1.77C94.52,66.13,94.77,65.88,95.06,65.88L95.06,65.88z
		 M95.06,41.53h31.97c0.3,0,0.54,0.24,0.54,0.54v1.77c0,0.3-0.24,0.54-0.54,0.54H95.06c-0.3,0-0.54-0.24-0.54-0.54v-1.77
		C94.52,41.77,94.77,41.53,95.06,41.53L95.06,41.53z M100.93,45.83h3.7c0.52,0,0.95,0.43,0.95,0.95v16.66
		c0,0.52-0.43,0.95-0.95,0.95h-3.7c-0.52,0-0.95-0.43-0.95-0.95V46.78C99.99,46.26,100.41,45.83,100.93,45.83L100.93,45.83z
		 M109.28,45.83h3.7c0.52,0,0.95,0.43,0.95,0.95v16.66c0,0.52-0.43,0.95-0.95,0.95h-3.7c-0.52,0-0.95-0.43-0.95-0.95V46.78
		C108.34,46.26,108.76,45.83,109.28,45.83L109.28,45.83z M117.46,45.83h3.7c0.52,0,0.95,0.43,0.95,0.95v16.66
		c0,0.52-0.43,0.95-0.95,0.95h-3.7c-0.52,0-0.95-0.43-0.95-0.95V46.78C116.51,46.26,116.94,45.83,117.46,45.83L117.46,45.83z
		 M111.54,26.83c6.83,0.23,12.31,5.84,12.31,12.73c0,0.17,0,0.34-0.01,0.52H98.38c-0.01-0.17-0.01-0.34-0.01-0.52
		c0-6.89,5.47-12.5,12.3-12.73v-1.77h-2.19h-0.74h-0.74V22.7h1.48v1.49h2.19v-3.91h-0.31v-2.36h0.31h0.87h0.31v2.36h-0.31v3.91h2.28
		V22.7h1.48v2.36h-0.84h-0.65h-2.28V26.83L111.54,26.83z M23.94,174.01h174.33v6.92H23.94V174.01z"/>
	<rect x="25.15" y="315.87" class="st1" width="174.36" height="8.25"/>
</g>
</svg>
